<svg width="16" height="15" viewBox="0 0 16 15" fill="none" xmlns="http://www.w3.org/2000/svg">
<rect y="1" width="14" height="14" rx="2" fill="#F9F9F9"/>
<g clip-path="url(#clip0)">
<path d="M7.36085 12.23C7.22721 12.3644 7.04489 12.4394 6.85549 12.4394C6.66609 12.4394 6.48376 12.3644 6.35012 12.23L2.31414 8.19333C1.89529 7.77448 1.89529 7.09529 2.31414 6.67723L2.8195 6.17174C3.23848 5.75289 3.91688 5.75289 4.33573 6.17174L6.85549 8.69163L13.6642 1.88274C14.0832 1.46389 14.7623 1.46389 15.1805 1.88274L15.6858 2.38824C16.1047 2.80708 16.1047 3.48614 15.6858 3.90433L7.36085 12.23Z" fill="url(#paint0_linear)"/>
</g>
<defs>
<linearGradient id="paint0_linear" x1="8.99999" y1="1.5686" x2="8.99999" y2="12.4394" gradientUnits="userSpaceOnUse">
<stop stop-color="#85C226"/>
<stop offset="1" stop-color="#96C272"/>
</linearGradient>
<clipPath id="clip0">
<rect width="14" height="14" fill="white" transform="translate(2)"/>
</clipPath>
</defs>
</svg>
