<svg width="30" height="30" viewBox="0 0 30 30" fill="none" xmlns="http://www.w3.org/2000/svg">
<g clip-path="url(#clip0)">
<path d="M25.605 4.39143C19.7463 -1.46554 10.2488 -1.46413 4.3918 4.39466C-1.46517 10.2534 -1.46377 19.7509 4.39502 25.6079C10.2538 31.4648 19.7513 31.4634 25.6082 25.6047C28.4211 22.7909 30.0009 18.975 30 14.9964C29.9992 11.0185 28.4183 7.20382 25.605 4.39143ZM22.717 20.8945C22.7164 20.8951 22.7157 20.8958 22.715 20.8965V20.8915L21.955 21.6465C20.9721 22.6418 19.5406 23.0513 18.18 22.7265C16.8092 22.3596 15.506 21.7755 14.32 20.9965C13.2181 20.2923 12.1969 19.469 11.275 18.5415C10.4267 17.6994 9.66465 16.7748 8.99996 15.7815C8.27293 14.7126 7.69748 13.5482 7.28996 12.3215C6.8228 10.8803 7.20992 9.29889 8.28998 8.23647L9.17996 7.34649C9.42741 7.09794 9.82948 7.09706 10.078 7.3445C10.0786 7.34514 10.0793 7.34579 10.08 7.34649L12.8899 10.1565C13.1385 10.4039 13.1394 10.806 12.8919 11.0545C12.8913 11.0551 12.8906 11.0558 12.8899 11.0565L11.2399 12.7065C10.7665 13.1748 10.707 13.9189 11.1 14.4565C11.6967 15.2755 12.3572 16.0462 13.075 16.7615C13.8753 17.5653 14.7454 18.2965 15.675 18.9465C16.2121 19.3212 16.9403 19.258 17.4049 18.7965L18.9999 17.1765C19.2474 16.928 19.6494 16.9271 19.8979 17.1745C19.8986 17.1752 19.8992 17.1758 19.8999 17.1765L22.7149 19.9965C22.9636 20.2439 22.9644 20.6459 22.717 20.8945Z" fill="url(#paint0_linear)"/>
</g>
<defs>
<linearGradient id="paint0_linear" x1="3.18995e-07" y1="4.49964" x2="29.9328" y2="6.22325" gradientUnits="userSpaceOnUse">
<stop stop-color="#85C226"/>
<stop offset="1" stop-color="#96C272"/>
</linearGradient>
<clipPath id="clip0">
<rect width="30" height="30" fill="white"/>
</clipPath>
</defs>
</svg>
