<svg width="15" height="15" viewBox="0 0 15 15" fill="none" xmlns="http://www.w3.org/2000/svg">
<g clip-path="url(#clip0)">
<path d="M7.28663 0.00363466C4.30646 0.108202 1.83068 2.43329 1.54466 5.40115C1.48622 5.99473 1.52005 6.56985 1.62462 7.12036C1.62462 7.12036 1.63385 7.18495 1.6646 7.30797C1.75687 7.72009 1.89526 8.1199 2.06749 8.49511C2.66722 9.916 4.05427 12.2934 7.16669 14.8799C7.35737 15.0398 7.63724 15.0398 7.831 14.8799C10.9434 12.2964 12.3305 9.91907 12.9333 8.49204C13.1086 8.11683 13.2439 7.72009 13.3362 7.30489C13.3638 7.18495 13.3761 7.11729 13.3761 7.11729C13.4469 6.74822 13.4838 6.36994 13.4838 5.98242C13.4838 2.60552 10.6881 -0.11631 7.28663 0.00363466ZM7.49884 8.95952C5.89343 8.95952 4.59248 7.65858 4.59248 6.05316C4.59248 4.44774 5.89343 3.1468 7.49884 3.1468C9.10426 3.1468 10.4052 4.44774 10.4052 6.05316C10.4052 7.65858 9.10426 8.95952 7.49884 8.95952Z" fill="url(#paint0_linear)"/>
</g>
<defs>
<linearGradient id="paint0_linear" x1="7.49998" y1="-0.000183105" x2="7.49998" y2="14.9998" gradientUnits="userSpaceOnUse">
<stop stop-color="#85C226"/>
<stop offset="1" stop-color="#96C272"/>
</linearGradient>
<clipPath id="clip0">
<rect width="15" height="15" fill="white"/>
</clipPath>
</defs>
</svg>
