<svg width="36" height="15" viewBox="0 0 36 15" fill="none" xmlns="http://www.w3.org/2000/svg">
<g opacity="0.3">
<circle cx="28.5" cy="7.5" r="7.5" fill="#F9FBFD"/>
<path d="M28.5 0C24.3645 0 21 3.36448 21 7.5C21 11.6355 24.3645 15 28.5 15C32.6355 15 36 11.6355 36 7.5C36 3.36448 32.6355 0 28.5 0ZM28.5 14.1211C24.8491 14.1211 21.8789 11.1509 21.8789 7.5C21.8789 3.84911 24.8491 0.878906 28.5 0.878906C32.1509 0.878906 35.1211 3.84911 35.1211 7.5C35.1211 11.1509 32.1509 14.1211 28.5 14.1211Z" fill="#20201F"/>
<path d="M29.4411 3.76559H27.0875C26.8448 3.76559 26.6481 3.96235 26.6481 4.20505V7.53121H26.1461C25.9034 7.53121 25.7067 7.72797 25.7067 7.97066C25.7067 8.21336 25.9034 8.41012 26.1461 8.41012H26.6481V9.41403H26.1461C25.9034 9.41403 25.7067 9.61079 25.7067 9.85349C25.7067 10.0962 25.9034 10.2929 26.1461 10.2929H26.6481V11.2656C26.6481 11.5083 26.8448 11.705 27.0875 11.705C27.3302 11.705 27.527 11.5083 27.527 11.2656V10.2929H29.4411C29.6837 10.2929 29.8805 10.0962 29.8805 9.85349C29.8805 9.61079 29.6837 9.41403 29.4411 9.41403H27.527V8.41012H29.4411C30.7216 8.41012 31.7633 7.36835 31.7633 6.08784C31.7633 4.77569 30.6945 3.76559 29.4411 3.76559ZM29.4411 7.53121H27.527V4.6445H29.4411C30.2321 4.6445 30.8844 5.28259 30.8844 6.08787C30.8844 6.88375 30.2369 7.53121 29.4411 7.53121Z" fill="#20201F"/>
<circle cx="28.5" cy="7.5" r="7.5" fill="url(#paint0_linear)"/>
</g>
<g opacity="0.6">
<circle cx="18.5" cy="7.5" r="7.5" fill="#F9FBFD"/>
<path d="M18.5 0C14.3645 0 11 3.36448 11 7.5C11 11.6355 14.3645 15 18.5 15C22.6355 15 26 11.6355 26 7.5C26 3.36448 22.6355 0 18.5 0ZM18.5 14.1211C14.8491 14.1211 11.8789 11.1509 11.8789 7.5C11.8789 3.84911 14.8491 0.878906 18.5 0.878906C22.1509 0.878906 25.1211 3.84911 25.1211 7.5C25.1211 11.1509 22.1509 14.1211 18.5 14.1211Z" fill="#20201F"/>
<path d="M19.4411 3.76559H17.0875C16.8448 3.76559 16.6481 3.96235 16.6481 4.20505V7.53121H16.1461C15.9034 7.53121 15.7067 7.72797 15.7067 7.97066C15.7067 8.21336 15.9034 8.41012 16.1461 8.41012H16.6481V9.41403H16.1461C15.9034 9.41403 15.7067 9.61079 15.7067 9.85349C15.7067 10.0962 15.9034 10.2929 16.1461 10.2929H16.6481V11.2656C16.6481 11.5083 16.8448 11.705 17.0875 11.705C17.3302 11.705 17.527 11.5083 17.527 11.2656V10.2929H19.4411C19.6837 10.2929 19.8805 10.0962 19.8805 9.85349C19.8805 9.61079 19.6837 9.41403 19.4411 9.41403H17.527V8.41012H19.4411C20.7216 8.41012 21.7633 7.36835 21.7633 6.08784C21.7633 4.77569 20.6945 3.76559 19.4411 3.76559ZM19.4411 7.53121H17.527V4.6445H19.4411C20.2321 4.6445 20.8844 5.28259 20.8844 6.08787C20.8844 6.88375 20.2369 7.53121 19.4411 7.53121Z" fill="#20201F"/>
<circle cx="18.5" cy="7.5" r="7.5" fill="url(#paint1_linear)"/>
</g>
<circle cx="7.5" cy="7.5" r="7.5" fill="#F9FBFD"/>
<path d="M7.5 0C3.36448 0 0 3.36448 0 7.5C0 11.6355 3.36448 15 7.5 15C11.6355 15 15 11.6355 15 7.5C15 3.36448 11.6355 0 7.5 0ZM7.5 14.1211C3.84911 14.1211 0.878906 11.1509 0.878906 7.5C0.878906 3.84911 3.84911 0.878906 7.5 0.878906C11.1509 0.878906 14.1211 3.84911 14.1211 7.5C14.1211 11.1509 11.1509 14.1211 7.5 14.1211Z" fill="#20201F"/>
<path d="M8.44105 3.76559H6.08751C5.84482 3.76559 5.64806 3.96235 5.64806 4.20505V7.53121H5.14612C4.90342 7.53121 4.70667 7.72797 4.70667 7.97066C4.70667 8.21336 4.90342 8.41012 5.14612 8.41012H5.64806V9.41403H5.14612C4.90342 9.41403 4.70667 9.61079 4.70667 9.85349C4.70667 10.0962 4.90342 10.2929 5.14612 10.2929H5.64806V11.2656C5.64806 11.5083 5.84482 11.705 6.08751 11.705C6.33021 11.705 6.52697 11.5083 6.52697 11.2656V10.2929H8.44105C8.68375 10.2929 8.8805 10.0962 8.8805 9.85349C8.8805 9.61079 8.68375 9.41403 8.44105 9.41403H6.52697V8.41012H8.44105C9.72156 8.41012 10.7633 7.36835 10.7633 6.08784C10.7633 4.77569 9.69446 3.76559 8.44105 3.76559ZM8.44105 7.53121H6.52697V4.6445H8.44105C9.23212 4.6445 9.88442 5.28259 9.88442 6.08787C9.88439 6.88375 9.23693 7.53121 8.44105 7.53121Z" fill="#20201F"/>
<defs>
<linearGradient id="paint0_linear" x1="36" y1="8.27586" x2="21" y2="8.27586" gradientUnits="userSpaceOnUse">
<stop stop-color="white"/>
<stop offset="1" stop-color="white" stop-opacity="0"/>
</linearGradient>
<linearGradient id="paint1_linear" x1="26" y1="8.27586" x2="11" y2="8.27586" gradientUnits="userSpaceOnUse">
<stop stop-color="white"/>
<stop offset="1" stop-color="white" stop-opacity="0"/>
</linearGradient>
</defs>
</svg>
