<svg width="30" height="30" viewBox="0 0 30 30" fill="none" xmlns="http://www.w3.org/2000/svg">
<path d="M15 0C6.717 0 0 6.717 0 15C0 23.283 6.717 30 15 30C23.283 30 30 23.283 30 15C30 6.717 23.283 0 15 0ZM15.3179 23.7334C15.3177 23.7334 15.3181 23.7334 15.3179 23.7334H15.3143C13.8116 23.7328 12.3351 23.356 11.0239 22.641L6.26472 23.8891L7.53845 19.2382C6.7527 17.8773 6.33934 16.3332 6.34003 14.7514C6.34209 9.80301 10.3695 5.77721 15.3179 5.77721C17.7193 5.77812 19.9736 6.71288 21.6685 8.40912C23.3636 10.1056 24.2965 12.3605 24.2956 14.7585C24.2935 19.7072 20.2657 23.7334 15.3179 23.7334Z" fill="url(#paint0_linear)"/>
<path d="M15.3207 7.29321C11.2047 7.29321 7.8573 10.6392 7.85547 14.7522C7.85501 16.1617 8.2496 17.5343 8.99645 18.722L9.17383 19.0042L8.41989 21.7569L11.2441 21.0163L11.5167 21.1779C12.6622 21.8577 13.9755 22.2172 15.3145 22.2177H15.3175C19.4303 22.2177 22.7776 18.8714 22.7795 14.7582C22.7802 12.7649 22.0047 10.8908 20.5959 9.48087C19.1872 8.07095 17.3136 7.2939 15.3207 7.29321ZM19.7097 17.9593C19.5227 18.483 18.6266 18.9612 18.1957 19.0257C17.8091 19.0834 17.3202 19.1074 16.7828 18.9369C16.4568 18.8334 16.0391 18.6954 15.5038 18.4645C13.2536 17.4931 11.784 15.2281 11.6718 15.0784C11.5597 14.9287 10.7559 13.8624 10.7559 12.7585C10.7559 11.6548 11.3354 11.1121 11.5409 10.8878C11.7467 10.6633 11.9898 10.6072 12.1392 10.6072C12.2887 10.6072 12.4384 10.6086 12.5691 10.615C12.7068 10.6218 12.8918 10.5626 13.0737 11C13.2607 11.449 13.7094 12.5527 13.7654 12.6648C13.8215 12.7772 13.8588 12.9081 13.7842 13.0578C13.7094 13.2075 13.4608 13.5305 13.2234 13.8248C13.1239 13.9482 12.9941 14.058 13.125 14.2826C13.2557 14.5069 13.7061 15.2414 14.3729 15.836C15.2298 16.6 15.9526 16.8367 16.1769 16.9491C16.401 17.0612 16.5319 17.0424 16.6628 16.893C16.7935 16.7433 17.2236 16.2381 17.3731 16.0136C17.5225 15.7891 17.6722 15.8266 17.8777 15.9015C18.0835 15.9761 19.1863 16.5188 19.4106 16.6309C19.6349 16.7433 19.7843 16.7994 19.8404 16.893C19.8967 16.9866 19.8967 17.4354 19.7097 17.9593Z" fill="#29B53F"/>
<defs>
<linearGradient id="paint0_linear" x1="15" y1="0" x2="15" y2="30" gradientUnits="userSpaceOnUse">
<stop stop-color="#59D265"/>
<stop offset="1" stop-color="#29B53F"/>
</linearGradient>
</defs>
</svg>
