<svg width="24" height="23" viewBox="0 0 24 23" fill="none" xmlns="http://www.w3.org/2000/svg">
<g clip-path="url(#clip0)">
<path d="M20.52 3.30529C18.24 1.19312 15.24 0 12.045 0C2.875 0 -2.883 9.52104 1.696 17.0947L0 23L6.335 21.4168C9.095 22.8457 11.356 22.7192 12.051 22.8035C22.684 22.8035 27.977 10.4755 20.505 3.34267L20.52 3.30529Z" fill="#ECEFF1"/>
<path d="M12.0674 20.8449L12.0614 20.844H12.0454C8.86337 20.844 6.83037 19.3997 6.63037 19.3164L2.88037 20.2507L3.88537 16.7576L3.64637 16.3982C2.65637 14.8879 2.13037 13.1485 2.13037 11.3574C2.13037 2.93079 12.8754 -1.28301 19.0934 4.67304C25.2964 10.5668 20.9414 20.8449 12.0674 20.8449Z" fill="#4CAF50"/>
<path d="M17.5071 13.7111L17.4981 13.783C17.1971 13.6392 15.7311 12.9521 15.4581 12.8572C14.8451 12.6397 15.0181 12.8227 13.8411 14.1145C13.6661 14.3014 13.4921 14.3158 13.1951 14.1864C12.8951 14.0427 11.9321 13.7408 10.7921 12.7633C9.90414 12.0014 9.30814 11.067 9.13214 10.7795C8.83914 10.2946 9.45214 10.2256 10.0101 9.21362C10.1101 9.01237 10.0591 8.85424 9.98514 8.71145C9.91014 8.5677 9.31314 7.15895 9.06314 6.59737C8.82314 6.0377 8.57614 6.10862 8.39114 6.10862C7.81514 6.0607 7.39414 6.06837 7.02314 6.43829C5.40914 8.13837 5.81614 9.89212 7.19714 11.757C9.91114 15.161 11.3571 15.7878 14.0011 16.658C14.7151 16.8755 15.3661 16.8448 15.8811 16.7739C16.4551 16.6867 17.6481 16.083 17.8971 15.4073C18.1521 14.7317 18.1521 14.1711 18.0771 14.0417C18.0031 13.9123 17.8071 13.8405 17.5071 13.7111Z" fill="#FAFAFA"/>
</g>
<defs>
<clipPath id="clip0">
<rect width="24" height="23" fill="white"/>
</clipPath>
</defs>
</svg>
