<svg width="21" height="21" viewBox="0 0 21 21" fill="none" xmlns="http://www.w3.org/2000/svg">
<g clip-path="url(#clip0)">
<circle cx="10.4385" cy="10.5205" r="10.5205" fill="#4B729F"/>
<path d="M14.7877 11.5874C14.5775 11.3074 14.6376 11.1829 14.7877 10.9326C14.7904 10.9297 16.5254 8.40057 16.7041 7.54286L16.7052 7.54229C16.7941 7.22971 16.7052 7 16.2757 7H14.8543C14.4924 7 14.3256 7.19714 14.2362 7.41771C14.2362 7.41771 13.5125 9.24514 12.4888 10.4297C12.1583 10.772 12.0056 10.8817 11.8252 10.8817C11.7364 10.8817 11.5982 10.772 11.5982 10.4594V7.54229C11.5982 7.16743 11.4969 7 11.1974 7H8.96238C8.73541 7 8.60053 7.17486 8.60053 7.33771C8.60053 7.69314 9.11243 7.77486 9.16551 8.77486V10.9446C9.16551 11.42 9.08372 11.5074 8.90225 11.5074C8.41907 11.5074 7.24632 9.67257 6.55134 7.57257C6.41104 7.16514 6.274 7.00057 5.90944 7.00057H4.48752C4.08179 7.00057 4 7.19771 4 7.41829C4 7.808 4.48318 9.74571 6.24691 12.3057C7.42237 14.0531 9.07776 15 10.5836 15C11.4888 15 11.5993 14.7897 11.5993 14.428C11.5993 12.7583 11.5175 12.6006 11.9709 12.6006C12.1811 12.6006 12.5429 12.7103 13.3879 13.5531C14.3538 14.5526 14.5125 15 15.0531 15H16.4745C16.8797 15 17.085 14.7897 16.9669 14.3749C16.6966 13.5023 14.87 11.7074 14.7877 11.5874Z" fill="white"/>
</g>
<defs>
<clipPath id="clip0">
<rect width="21" height="21" fill="white"/>
</clipPath>
</defs>
</svg>
