<svg width="21" height="21" viewBox="0 0 21 21" fill="none" xmlns="http://www.w3.org/2000/svg">
<g clip-path="url(#clip0)">
<circle cx="10.4385" cy="10.5205" r="10.5205" fill="url(#paint0_linear)"/>
<path d="M10.5002 3.77992C7.74498 3.77992 5.12865 3.53502 4.12931 6.09773C3.71653 7.15617 3.77647 8.53078 3.77647 10.4991C3.77647 12.2262 3.72108 13.8495 4.12931 14.8996C5.12637 17.4638 7.76395 17.2182 10.4986 17.2182C13.137 17.2182 15.8573 17.4927 16.8687 14.8996C17.2823 13.8306 17.2216 12.4764 17.2216 10.4991C17.2216 7.87418 17.3665 6.17961 16.0925 4.90736C14.8025 3.61843 13.0581 3.77992 10.4971 3.77992H10.5002ZM9.89768 4.99076C15.6448 4.98166 16.3763 4.34326 15.9726 13.2119C15.8292 16.3485 13.439 16.0043 10.5009 16.0043C5.14382 16.0043 4.98979 15.8512 4.98979 10.496C4.98979 5.07871 5.41472 4.99379 9.89768 4.98924V4.99076ZM14.0893 6.10607C13.6439 6.10607 13.2827 6.46697 13.2827 6.91203C13.2827 7.35709 13.6439 7.71799 14.0893 7.71799C14.5347 7.71799 14.8959 7.35709 14.8959 6.91203C14.8959 6.46697 14.5347 6.10607 14.0893 6.10607ZM10.5002 7.0485C8.59331 7.0485 7.04764 8.59371 7.04764 10.4991C7.04764 12.4044 8.59331 13.9488 10.5002 13.9488C12.407 13.9488 13.9519 12.4044 13.9519 10.4991C13.9519 8.59371 12.407 7.0485 10.5002 7.0485ZM10.5002 8.25934C13.4633 8.25934 13.4671 12.7388 10.5002 12.7388C7.53783 12.7388 7.53327 8.25934 10.5002 8.25934Z" fill="white"/>
</g>
<defs>
<linearGradient id="paint0_linear" x1="1.3307" y1="19.6702" x2="20.8266" y2="2.79338" gradientUnits="userSpaceOnUse">
<stop stop-color="#FFDD55"/>
<stop offset="0.5" stop-color="#FF543E"/>
<stop offset="1" stop-color="#C837AB"/>
</linearGradient>
<clipPath id="clip0">
<rect width="21" height="21" fill="white"/>
</clipPath>
</defs>
</svg>
