<svg width="21" height="21" viewBox="0 0 21 21" fill="none" xmlns="http://www.w3.org/2000/svg">
<path d="M10.5 21C16.299 21 21 16.299 21 10.5C21 4.70101 16.299 0 10.5 0C4.70101 0 0 4.70101 0 10.5C0 16.299 4.70101 21 10.5 21Z" fill="#039BE5"/>
<path d="M4.80449 10.2724L14.9282 6.36906C15.3981 6.19931 15.8085 6.48369 15.6562 7.19419L15.6571 7.19331L13.9334 15.3142C13.8056 15.8899 13.4635 16.0299 12.9849 15.7587L10.3599 13.8241L9.09374 15.0438C8.95374 15.1838 8.83561 15.3019 8.56436 15.3019L8.75074 12.6306L13.6157 8.23544C13.8275 8.04906 13.5685 7.94406 13.2894 8.12956L7.27724 11.9148L4.68549 11.1063C4.12286 10.9278 4.11061 10.5437 4.80449 10.2724Z" fill="white"/>
</svg>
